<svg width="98" height="140" viewBox="0 0 98 140" fill="none" xmlns="http://www.w3.org/2000/svg">
<path d="M49 72.3333C41.09 72.3333 28 61.6467 28 49.4667V37.3334C44.52 35.2334 52.01 29.2367 56 25.6667C59.866 30.4266 64.6209 34.3891 70 37.3334V49.4667C69.9665 52.5608 69.1903 55.6017 67.7366 58.3334H74.6666V35C74.6666 28.1928 71.9625 21.6644 67.149 16.851C62.3356 12.0375 55.8072 9.33337 49 9.33337C42.1928 9.33337 35.6643 12.0375 30.8509 16.851C26.0375 21.6644 23.3333 28.1928 23.3333 35V69.72C23.3336 71.2889 23.0246 72.8424 22.4241 74.2917C21.8235 75.7411 20.9432 77.0578 19.8333 78.1667C18.1296 79.8705 16.9824 82.0508 16.5433 84.42L29.5167 79.52C30.4341 79.2022 31.2301 78.607 31.7944 77.817C32.3587 77.0269 32.6636 76.0809 32.6667 75.11V69.2067C34.1114 70.5649 35.673 71.7931 37.3333 72.877V75.1124C37.3286 76.4444 37.0348 77.7596 36.4723 78.967L49 96.8637L61.5276 78.967C60.9651 77.7596 60.6714 76.4444 60.6666 75.1124V72.877C62.327 71.7931 63.8886 70.5649 65.3333 69.2067V75.11C65.3337 76.0691 65.6296 77.0047 66.1807 77.7896C66.7318 78.5745 67.5114 79.1706 68.4133 79.4967L81.4566 84.42C81.0175 82.0508 79.8704 79.8705 78.1666 78.1667C77.0568 77.0578 76.1765 75.7411 75.5759 74.2917C74.9753 72.8424 74.6664 71.2889 74.6666 69.72V63H64.7033C60.1766 68.5767 53.69 72.3333 49 72.3333ZM49 88.725L41.643 78.225C41.8563 77.2931 41.9712 76.3413 41.986 75.3853C44.1959 76.3772 46.5789 76.9258 49 77C51.4224 76.9199 53.8054 76.365 56.014 75.3667C56.0287 76.3226 56.1437 77.2744 56.357 78.2063L49 88.725Z" fill="#222E3D"/>
<path d="M49 55.9999C45.1383 55.9999 42 58.0999 42 60.6666C42 63.2333 45.1383 65.3333 49 65.3333C50.1112 65.3809 51.2202 65.1982 52.2574 64.7966C53.2946 64.3951 54.2375 63.7834 55.027 62.9999H64.7033C65.8824 61.5602 66.8996 59.9953 67.7367 58.3333H55.027C54.2375 57.5499 53.2946 56.9382 52.2574 56.5366C51.2202 56.1351 50.1112 55.9523 49 55.9999Z" fill="#222E3D"/>
<path d="M37.3333 46.6666C39.9106 46.6666 42 45.0996 42 43.1666C42 41.2336 39.9106 39.6666 37.3333 39.6666C34.756 39.6666 32.6667 41.2336 32.6667 43.1666C32.6667 45.0996 34.756 46.6666 37.3333 46.6666Z" fill="#222E3D"/>
<path d="M60.6666 46.6666C63.244 46.6666 65.3333 45.0996 65.3333 43.1666C65.3333 41.2336 63.244 39.6666 60.6666 39.6666C58.0893 39.6666 56 41.2336 56 43.1666C56 45.0996 58.0893 46.6666 60.6666 46.6666Z" fill="#222E3D"/>
<path d="M85.9296 91.1073L66.8313 83.8903C66.0396 83.5982 65.2915 83.1994 64.6076 82.705L49 105L33.3923 82.705C32.7085 83.1994 31.9604 83.5982 31.1687 83.8903L12.0703 91.1073C8.52311 92.4472 5.46808 94.8357 3.31184 97.9548C1.1556 101.074 0.000404799 104.776 0 108.568V140H18.6667V138.537C15.6892 135.041 14.054 130.599 14.054 126.007C14.054 121.415 15.6892 116.973 18.6667 113.477V109.667H23.3333V114.333C23.3332 114.91 23.1195 115.466 22.7337 115.894C22.3697 116.305 13.8017 126.18 22.7337 136.106C23.1195 136.534 23.3332 137.09 23.3333 137.667V140H46.6666V135.333H51.3333V140H74.6666V137.667C74.6668 137.09 74.8804 136.534 75.2663 136.106C84.2566 126.114 75.6373 116.307 75.2663 115.894C74.8804 115.466 74.6668 114.91 74.6666 114.333V109.667H79.3333V113.477C82.3108 116.973 83.946 121.415 83.946 126.007C83.946 130.599 82.3108 135.041 79.3333 138.537V140H98V108.568C97.9996 104.776 96.8444 101.074 94.6881 97.9548C92.5319 94.8357 89.4769 92.4472 85.9296 91.1073ZM51.3333 128.333H46.6666V123.667H51.3333V128.333ZM51.3333 116.667H46.6666V112H51.3333V116.667Z" fill="#222E3D"/>
<path d="M14 53.6666H18.6666V35C18.6666 26.9551 21.8625 19.2397 27.5511 13.5511C33.2397 7.86249 40.9551 4.66666 49 4.66666C57.0449 4.66666 64.7603 7.86249 70.4489 13.5511C76.1375 19.2397 79.3333 26.9551 79.3333 35V53.6666C79.3296 54.9032 78.8367 56.088 77.9624 56.9624C77.088 57.8368 75.9032 58.3296 74.6666 58.3333V63C77.142 63 79.5159 62.0166 81.2663 60.2663C83.0166 58.516 83.9999 56.142 83.9999 53.6666C85.2376 53.6666 86.4246 53.175 87.2998 52.2998C88.1749 51.4246 88.6666 50.2377 88.6666 49V39.6666C88.6666 38.429 88.1749 37.242 87.2998 36.3668C86.4246 35.4916 85.2376 35 83.9999 35C83.9999 25.7174 80.3125 16.815 73.7487 10.2513C67.1849 3.68749 58.2825 0 49 0C39.7174 0 30.815 3.68749 24.2512 10.2513C17.6875 16.815 14 25.7174 14 35C12.7623 35 11.5753 35.4916 10.7001 36.3668C9.82498 37.242 9.33331 38.429 9.33331 39.6666V49C9.33331 50.2377 9.82498 51.4246 10.7001 52.2998C11.5753 53.175 12.7623 53.6666 14 53.6666Z" fill="#222E3D"/>
</svg>
