<svg width="22" height="22" viewBox="0 0 22 22" fill="none" xmlns="http://www.w3.org/2000/svg">
<path d="M11 0C4.9346 0 0 4.9346 0 11C0 17.0654 4.9346 22 11 22C17.0654 22 22 17.0654 22 11C22 4.9346 17.0654 0 11 0ZM11 19.6594C6.22526 19.6594 2.34039 15.775 2.34039 11C2.34039 6.22503 6.22526 2.34061 11 2.34061C15.7747 2.34061 19.6596 6.22503 19.6596 11C19.6596 15.775 15.7747 19.6594 11 19.6594Z" fill="white"/>
<path d="M16.7328 10.6603H11.7894V4.71651C11.7894 4.21633 11.3838 3.81079 10.8836 3.81079C10.3834 3.81079 9.97791 4.21633 9.97791 4.71651V11.566C9.97791 12.0662 10.3834 12.4718 10.8836 12.4718H16.7328C17.233 12.4718 17.6385 12.0662 17.6385 11.566C17.6385 11.0659 17.233 10.6603 16.7328 10.6603Z" fill="white"/>
</svg>
