<svg width="52" height="60" viewBox="0 0 52 60" fill="none" xmlns="http://www.w3.org/2000/svg">
<path d="M15.6892 17.3662H35.6189C36.2765 17.3662 36.8095 16.8416 36.8095 16.1943C36.8095 15.5475 36.2765 15.0225 35.6189 15.0225H15.6892C15.0316 15.0225 14.4986 15.5475 14.4986 16.1943C14.4986 16.8416 15.0316 17.3662 15.6892 17.3662Z" fill="#FF1E2E"/>
<path d="M15.6892 25.8022H33.9524C34.6101 25.8022 35.1431 25.2776 35.1431 24.6304C35.1431 23.9831 34.6101 23.4585 33.9524 23.4585H15.6892C15.0316 23.4585 14.4986 23.9831 14.4986 24.6304C14.4986 25.2776 15.0316 25.8022 15.6892 25.8022Z" fill="#FF1E2E"/>
<path d="M15.6892 33.1541H27.3398C27.9969 33.1541 28.5304 32.6295 28.5304 31.9822C28.5304 31.3354 27.9969 30.8103 27.3398 30.8103H15.6892C15.0316 30.8103 14.4986 31.3354 14.4986 31.9822C14.4986 32.6295 15.0316 33.1541 15.6892 33.1541Z" fill="#FF1E2E"/>
<path d="M23.8125 38.1619H15.6892C15.0316 38.1619 14.4986 38.6869 14.4986 39.3337C14.4986 39.981 15.0316 40.5056 15.6892 40.5056H23.8125C24.4702 40.5056 25.0031 39.981 25.0031 39.3337C25.0031 38.6869 24.4702 38.1619 23.8125 38.1619Z" fill="#FF1E2E"/>
<path d="M22.4596 45.5142H15.6892C15.0316 45.5142 14.4986 46.0388 14.4986 46.686C14.4986 47.3329 15.0316 47.8579 15.6892 47.8579H22.4596C23.1172 47.8579 23.6502 47.3329 23.6502 46.686C23.6502 46.0388 23.1172 45.5142 22.4596 45.5142Z" fill="#FF1E2E"/>
<path d="M49.469 38.2846H48.9141V35.5215C48.9141 32.3552 47.3384 29.5454 44.9194 27.8078V10.5693C44.9194 8.25714 43.0079 6.37619 40.6592 6.37619H38.5296V4.19266C38.5296 1.88095 36.6185 0 34.2698 0H4.25977C1.91106 0 0 1.88095 0 4.19266V49.4119C0 51.7241 1.91106 53.6046 4.25977 53.6046H6.38896V55.7881C6.38896 58.1003 8.30002 59.9812 10.6492 59.9812H31.6709C31.8178 59.9922 31.9657 60 32.116 60H46.3147C49.4499 60 52 57.4896 52 54.4038V40.7762C52 39.4025 50.8647 38.2846 49.469 38.2846ZM46.5329 35.5215V38.2846H44.9506V35.5215C44.9506 35.3069 44.9371 35.0958 44.9129 34.8871C44.9129 34.883 44.912 34.8788 44.9115 34.8747C44.5841 32.0659 42.1554 29.8769 39.2151 29.8769C36.0529 29.8769 33.4801 32.4092 33.4801 35.522V38.2851H31.8978V35.522C31.8978 31.5504 35.1804 28.3195 39.2151 28.3195C43.2502 28.3195 46.5329 31.5504 46.5329 35.5215ZM42.5382 38.2846H35.8613V35.5215C35.8613 33.7015 37.3659 32.2206 39.2151 32.2206C40.9113 32.2206 42.3168 33.4671 42.5382 35.0775V38.2846ZM8.77023 55.7881V25.5075C8.77023 24.8607 8.23723 24.3356 7.57959 24.3356C6.92195 24.3356 6.38896 24.8607 6.38896 25.5075V51.2613H4.25977C3.22401 51.2613 2.38127 50.4318 2.38127 49.4119V4.19266C2.38127 3.17322 3.22401 2.34375 4.25977 2.34375H34.2693C35.3055 2.34375 36.1478 3.17322 36.1478 4.19266V6.37619H10.6492C8.30002 6.37619 6.38896 8.25714 6.38896 10.5693V16.1334C6.38896 16.7802 6.92195 17.3053 7.57959 17.3053C8.23723 17.3053 8.77023 16.7802 8.77023 16.1334V10.5693C8.77023 9.54987 9.61297 8.7204 10.6492 8.7204H37.3389C37.3413 8.7204 37.3431 8.71994 37.3459 8.71994H40.6592C41.695 8.71994 42.5382 9.54941 42.5382 10.5693V26.553C41.501 26.1795 40.382 25.9758 39.2151 25.9758C33.8675 25.9758 29.5166 30.2582 29.5166 35.5215V38.2846H28.9617C27.566 38.2846 26.4302 39.4025 26.4302 40.7762V54.4038C26.4302 55.6082 26.82 56.7233 27.4799 57.6375H10.6492C9.61344 57.6375 8.77023 56.808 8.77023 55.7881ZM49.6187 54.4038C49.6187 56.1974 48.1365 57.6562 46.3147 57.6562H32.116C30.2937 57.6562 28.8115 56.1974 28.8115 54.4038V40.7762C28.8115 40.6947 28.8789 40.6284 28.9617 40.6284H43.7218C43.7242 40.6284 43.7265 40.6288 43.7288 40.6288C43.7311 40.6288 43.733 40.6284 43.7358 40.6284H49.469C49.5518 40.6284 49.6192 40.6947 49.6192 40.7762V54.4038H49.6187Z" fill="#FF1E2E"/>
<path d="M39.2148 43.9851C36.3256 43.9851 33.975 46.2986 33.975 49.1423C33.975 51.9859 36.3256 54.2994 39.2148 54.2994C42.1039 54.2994 44.4545 51.9859 44.4545 49.1423C44.4545 46.2986 42.1039 43.9851 39.2148 43.9851ZM39.2148 51.9557C37.6386 51.9557 36.3563 50.6936 36.3563 49.1423C36.3563 47.5909 37.6386 46.3289 39.2148 46.3289C40.791 46.3289 42.0732 47.5909 42.0732 49.1423C42.0732 50.6936 40.791 51.9557 39.2148 51.9557Z" fill="#FF1E2E"/>
<path d="M7.57982 19.6487C6.92219 19.6487 6.38919 20.1733 6.38919 20.8206V20.8233C6.38919 21.4706 6.92219 21.9938 7.57982 21.9938C8.23746 21.9938 8.77046 21.4674 8.77046 20.8201C8.77046 20.1733 8.23746 19.6487 7.57982 19.6487Z" fill="#FF1E2E"/>
</svg>
