<svg width="18" height="22" viewBox="0 0 18 22" fill="none" xmlns="http://www.w3.org/2000/svg">
<path d="M12.4113 0H3.53126C2.23392 0 1.17807 1.05136 1.17807 2.3415V11H0.948184C0.42459 11 0 11.4221 0 11.9436V17.6657C0 18.1872 0.42459 18.6092 0.948184 18.6092H1.17807V19.6585C1.17807 20.9501 2.23392 22 3.53121 22H15.6476C16.9441 22 18 20.95 18 19.6585V5.54172L12.4113 0ZM1.56867 12.7295C1.90008 12.6771 2.33183 12.6475 2.7876 12.6475C3.54497 12.6475 4.0361 12.7828 4.42093 13.0711C4.83507 13.3775 5.09521 13.8665 5.09521 14.567C5.09521 15.3264 4.81732 15.8506 4.43249 16.1743C4.01258 16.5215 3.37337 16.6863 2.59248 16.6863C2.12492 16.6863 1.79351 16.6568 1.56872 16.6273V12.7295H1.56867ZM15.6476 20.566H3.53126C3.0289 20.566 2.61985 20.159 2.61985 19.6585V18.6092H13.9149C14.4385 18.6092 14.8632 18.1872 14.8632 17.6657V11.9436C14.8632 11.4221 14.4385 11 13.9149 11H2.61985V2.3415C2.61985 1.8424 3.0289 1.43538 3.53126 1.43538L11.8722 1.42671V4.49455C11.8722 5.39064 12.6029 6.11839 13.504 6.11839L16.5243 6.10976L16.5583 19.6585C16.5583 20.159 16.1499 20.566 15.6476 20.566ZM5.50568 14.6906C5.50568 13.5012 6.26892 12.6123 7.44657 12.6123C8.6716 12.6123 9.3401 13.5249 9.3401 14.6201C9.3401 15.9211 8.54728 16.71 7.3815 16.71C6.19812 16.71 5.50568 15.8212 5.50568 14.6906ZM11.9755 15.9621C12.2476 15.9621 12.5493 15.9031 12.7271 15.8326L12.863 16.5331C12.6975 16.6158 12.3246 16.7043 11.8396 16.7043C10.4607 16.7043 9.75061 15.8506 9.75061 14.7202C9.75061 13.366 10.7212 12.6124 11.9281 12.6124C12.3957 12.6124 12.7506 12.7065 12.9103 12.7885L12.727 13.5012C12.5435 13.4242 12.2891 13.3538 11.9697 13.3538C11.2534 13.3538 10.6974 13.7839 10.6974 14.6669C10.6974 15.4616 11.1707 15.9621 11.9755 15.9621Z" fill="#FF1E2E"/>
<path d="M4.13676 14.5963C4.14254 13.7715 3.65728 13.3364 2.88211 13.3364C2.6808 13.3364 2.5507 13.3537 2.47375 13.3716V15.9677C2.5507 15.9857 2.67507 15.9857 2.78746 15.9857C3.60413 15.9915 4.13676 15.5441 4.13676 14.5963Z" fill="#FF1E2E"/>
<path d="M8.38759 14.6489C8.38759 13.9369 8.04431 13.3242 7.42308 13.3242C6.81351 13.3242 6.45825 13.9016 6.45825 14.6726C6.45825 15.45 6.82538 15.9972 7.42891 15.9972C8.03853 15.9972 8.38759 15.4204 8.38759 14.6489Z" fill="#FF1E2E"/>
</svg>
