<svg width="20" height="14" viewBox="0 0 20 14" fill="#fff" xmlns="http://www.w3.org/2000/svg">
<path d="M0.417454 1.1359C3.16238 3.30557 7.97886 7.12268 9.39449 8.31286C9.58452 8.47349 9.78835 8.55516 9.99995 8.55516C10.2111 8.55516 10.4146 8.47426 10.6042 8.31439C12.021 7.12304 16.8375 3.30557 19.5825 1.1359C19.7534 1.00107 19.7794 0.764093 19.6411 0.599265C19.3212 0.218385 18.8444 0 18.3333 0H1.66663C1.15558 0 0.678665 0.218385 0.35886 0.599302C0.220501 0.764093 0.246556 1.00107 0.417454 1.1359Z" />
<path d="M19.7583 2.31165C19.6106 2.24748 19.4369 2.26987 19.314 2.36787C16.2699 4.77637 12.3848 7.86359 11.1625 8.89161C10.4764 9.46962 9.5243 9.46962 8.83664 8.89084C7.53375 7.7952 3.17094 4.33355 0.686016 2.36783C0.562305 2.26983 0.388164 2.24821 0.24168 2.31161C0.0944141 2.37545 0 2.51293 0 2.66445V12.4444C0 13.3023 0.747461 14 1.66668 14H18.3334C19.2525 14 20 13.3023 20 12.4444V2.66445C20 2.51293 19.9056 2.37508 19.7583 2.31165Z" />
</svg>
