<svg width="64" height="56" viewBox="0 0 64 56" fill="none" xmlns="http://www.w3.org/2000/svg">
<path d="M56.5631 14.5948C56.0756 14.1032 55.2843 14.1032 54.7956 14.5948C54.3081 15.0852 54.3081 15.8812 54.7956 16.3728C55.2843 16.8632 56.0756 16.8632 56.5631 16.3728C57.0518 15.8812 57.0518 15.0852 56.5631 14.5948Z" fill="#FF1E2E"/>
<path d="M9.20463 16.086C8.71588 15.5944 7.92462 15.5944 7.43712 16.086C6.94837 16.5764 6.94837 17.3736 7.43712 17.864C7.92462 18.3557 8.71588 18.3557 9.20463 17.864C9.69213 17.3736 9.69213 16.5764 9.20463 16.086Z" fill="#FF1E2E"/>
<path d="M63.634 14.5951L49.4918 0.368173C49.0038 -0.122724 48.2125 -0.122724 47.7239 0.368173C46.432 1.66772 40.3112 7.8248 39.0618 9.08172L33.0162 11.5868L24.7681 10.4016L16.2764 1.85972C15.8767 1.45735 15.4059 1.49407 15.3924 1.4913C15.0609 1.4913 14.743 1.62383 14.5085 1.8596L0.36594 16.0859C-0.121813 16.5767 -0.122188 17.3733 0.366065 17.8643L8.88463 26.4321L9.85813 31.3275L7.82774 33.3699C6.11773 35.0882 6.11536 37.8732 7.82674 39.5931C8.65362 40.4258 9.76376 40.8948 10.9681 40.8821C10.9564 42.0246 11.3819 43.1706 12.2464 44.0403C13.0997 44.8978 14.2199 45.3265 15.3403 45.3265C15.3563 45.3265 15.3722 45.3255 15.3882 45.3253C15.3759 46.4683 15.8013 47.6154 16.6661 48.4861C17.4922 49.3172 18.5907 49.775 19.7593 49.775C19.7752 49.775 19.791 49.774 19.8067 49.7738C19.7951 50.916 20.2206 52.062 21.0852 52.9316C22.7911 54.6461 25.5667 54.647 27.2726 52.9312L27.7148 52.4865L29.9235 54.7093C31.6334 56.4292 34.4016 56.4311 36.1114 54.7093C36.9763 53.8393 37.4018 52.6926 37.3895 51.5497C37.4052 51.5498 37.421 51.5508 37.4367 51.5508C38.5572 51.5508 39.6781 51.1219 40.5317 50.264C41.3952 49.3945 41.8204 48.2488 41.8086 47.1067C43.0112 47.1199 44.1226 46.6514 44.9501 45.8183C45.815 44.9482 46.2405 43.8015 46.2281 42.6586C46.2439 42.6587 46.2596 42.6597 46.2754 42.6597C47.3959 42.6597 48.5168 42.2308 49.3704 41.3729C51.0756 39.6561 51.0753 36.864 49.37 35.1488L48.7638 34.5389L54.8853 25.1738L63.6339 16.3734C64.122 15.8823 64.122 15.0862 63.634 14.5951ZM3.01783 16.9749L15.3924 4.52696L17.1603 6.30533L10.9724 12.5299C10.4843 13.021 10.4843 13.8172 10.9724 14.3083C11.4606 14.7993 12.2519 14.7993 12.7403 14.3083L18.9282 8.0837L22.411 11.5871L10.0363 24.034L3.01783 16.9749ZM9.63763 35.1059C9.63738 35.1062 9.63651 35.107 9.63551 35.1081C9.63651 35.107 9.63726 35.1062 9.63763 35.1059ZM12.2455 37.8159C11.5169 38.5495 10.3318 38.5572 9.59463 37.8149C8.86163 37.0782 8.86125 35.8861 9.59488 35.1488C9.59713 35.1465 9.59901 35.1446 9.60101 35.1426C9.60363 35.14 9.60613 35.1375 9.60838 35.1352C9.60976 35.1338 9.61101 35.1326 9.61226 35.1313C9.70476 35.0383 10.2026 34.5376 12.2469 32.4812C12.979 31.7438 14.1649 31.7434 14.8985 32.4817C15.6324 33.2198 15.6297 34.4131 14.8985 35.1484C14.8983 35.1487 14.8982 35.1488 14.8979 35.149L12.2455 37.8159ZM14.0138 42.2615C13.283 41.5264 13.283 40.3295 14.0134 39.594C14.0137 39.5938 14.014 39.5934 14.0143 39.5931C14.0145 39.5929 14.0147 39.5928 14.0149 39.5925L16.6657 36.9272C16.6659 36.9269 16.6661 36.9268 16.6663 36.9265C16.6664 36.9264 16.6666 36.9263 16.6667 36.926C17.3988 36.1898 18.5847 36.1896 19.3173 36.9265C20.0497 37.6633 20.0496 38.8578 19.3173 39.5944L16.6661 42.2614C15.9353 42.9969 14.7449 42.9966 14.0138 42.2615ZM21.0847 46.7079C20.353 47.4441 19.1665 47.4449 18.4342 46.7083C17.7031 45.9722 17.7028 44.7751 18.4338 44.0399L21.0856 41.3724C21.8177 40.635 23.0036 40.6347 23.7372 41.3729C24.4682 42.1081 24.4712 43.3013 23.7372 44.0396L21.0847 46.7079ZM28.1563 48.4856L25.505 51.1526C24.7741 51.8881 23.5839 51.8877 22.8527 51.1527C22.1218 50.4175 22.1218 49.2212 22.8527 48.486L25.5052 45.8177C26.2335 45.0852 27.4228 45.0799 28.1554 45.8167C28.8824 46.5497 28.8975 47.7386 28.1563 48.4856ZM47.6029 39.5943C46.871 40.3295 45.6816 40.3299 44.9508 39.595C44.9506 39.5949 44.9505 39.5948 44.9504 39.5947L43.6241 38.2605C43.1359 37.7695 42.3444 37.7695 41.8562 38.2605C41.3681 38.7515 41.3681 39.5477 41.8562 40.0388L43.1825 41.3728C43.9134 42.108 43.9134 43.3043 43.1821 44.0399C42.4497 44.7772 41.2646 44.7775 40.532 44.04C40.5317 44.0398 40.5314 44.0394 40.5311 44.0391L39.205 42.7063C38.7163 42.2154 37.9251 42.2157 37.4371 42.707C36.9492 43.1983 36.9496 43.9944 37.4378 44.4853L38.7633 45.8174C39.4941 46.5532 39.4941 47.7504 38.7642 48.4854C38.0325 49.2207 36.8427 49.2211 36.1116 48.4857L34.7853 47.1516C34.2971 46.6606 33.5056 46.6606 33.0174 47.1516C32.5293 47.6426 32.5293 48.4388 33.0174 48.9299L34.3437 50.2639C35.0746 50.9991 35.0746 52.1954 34.3433 52.931C33.6107 53.6686 32.4249 53.6685 31.6915 52.9307L29.4825 50.7077L29.9248 50.2629C31.63 48.5441 31.6393 45.7685 29.9239 44.0393C29.0594 43.1697 27.9204 42.7418 26.785 42.7535C26.797 41.5242 26.3197 40.4139 25.505 39.5943C24.677 38.7614 23.5672 38.2936 22.365 38.3057C22.3771 37.0999 21.9145 35.9823 21.0851 35.148C20.2575 34.3158 19.1478 33.8482 17.9462 33.8604C17.9594 32.6423 17.4858 31.5275 16.6662 30.7032C15.425 29.4547 13.6249 29.1119 12.0792 29.6757L11.393 26.2251L24.6205 12.9204L28.4636 13.4726L27.2388 13.9804C27.0863 14.0436 26.9478 14.1365 26.831 14.2539L18.4334 22.7012C16.7278 24.417 16.7278 27.2087 18.4334 28.9244C20.1445 30.6453 22.9096 30.6461 24.6215 28.9242L27.7131 25.8128C28.2015 25.3223 28.9953 25.3222 29.4821 25.8123C31.84 28.1839 35.2926 28.6008 38.0197 27.2871L46.2734 35.5898C46.2756 35.592 46.2779 35.5944 46.2803 35.5967L47.6025 36.9268C48.3334 37.662 48.3333 38.8589 47.6029 39.5943ZM46.9589 32.7226L40.0892 25.8122L40.9729 24.9235C41.461 24.4324 41.461 23.6362 40.9729 23.1452C40.4847 22.6542 39.6935 22.6542 39.205 23.1452C38.4278 23.9015 38.1765 24.2511 37.5575 24.6654C35.6442 25.953 32.9895 25.7838 31.2502 24.0342C29.789 22.5642 27.4098 22.5638 25.9459 24.0343L22.8537 27.1462C22.1197 27.8844 20.9356 27.8849 20.2013 27.1462C19.4705 26.411 19.4705 25.2147 20.2013 24.4795L28.4221 16.2098L39.4743 11.6304L52.3077 24.5398L46.9589 32.7226ZM53.9117 22.5966L41.537 10.1484L45.0728 6.59152L51.2602 12.8156C51.7484 13.3067 52.5397 13.3067 53.0281 12.8156C53.5162 12.3246 53.5162 11.5284 53.0281 11.0373L46.8406 4.81315L48.6079 3.03541L60.9826 15.4836L53.9117 22.5966Z" fill="#FF1E2E"/>
</svg>
