<svg width="40" height="40" viewBox="0 0 40 40" fill="none" xmlns="http://www.w3.org/2000/svg">
    <rect width="40" height="40" fill="#FF1E2E"/>
    <path d="M17.2133 15.8731C17.2068 15.8632 17.2076 15.8526 17.199 15.8439L14.2987 12.9434L15.8744 12.9458C16.2471 12.9458 16.5709 12.6223 16.5707 12.2497L16.5709 11.7194C16.5709 11.334 16.2574 11.0205 15.8722 11.0205H11.758C11.5677 11.0205 11.3881 11.1007 11.2556 11.2358C11.1242 11.3666 11.0458 11.5426 11.0458 11.7327V15.9336C11.0456 16.3186 11.359 16.6321 11.7442 16.6321L12.2748 16.6325C12.6596 16.6325 12.9727 16.3194 12.9729 15.9344L12.9719 14.356L15.4852 16.8695C15.4866 16.8707 15.4878 16.8719 15.4888 16.8732L15.8127 17.1967C16.0851 17.4692 16.5235 17.463 16.796 17.1904L17.171 16.8157C17.4292 16.5571 17.4447 16.1475 17.2133 15.8731Z" fill="white"/>
    <path d="M28.9976 24.147C28.9976 23.7616 28.6845 23.4477 28.2993 23.4477L27.7691 23.4473C27.397 23.4469 27.0719 23.7721 27.0719 24.1446L27.0743 25.7205L24.1853 22.8315C24.1762 22.8224 24.1601 22.818 24.1502 22.8114C23.8758 22.5795 23.4604 22.5898 23.2022 22.848L22.827 23.2232C22.5549 23.4953 22.5591 23.9448 22.8321 24.2178L23.1556 24.5413C23.1568 24.5425 23.158 24.5437 23.1592 24.5449L25.6616 27.0473L24.0837 27.0465C23.7115 27.0465 23.3856 27.3721 23.3856 27.7446L23.3868 28.276C23.3864 28.661 23.7007 28.9752 24.0857 28.9748L28.2876 28.9764C28.4734 28.976 28.6502 28.9059 28.7827 28.7733L28.8016 28.7543C28.9292 28.6263 29 28.4495 29 28.2641L28.9976 24.147Z" fill="white"/>
    <path d="M17.1637 23.236L16.7883 22.8605C16.5303 22.6027 16.1124 22.5964 15.8383 22.8278C15.8284 22.8345 15.8101 22.8427 15.8012 22.8514L12.9245 25.7281L12.9263 24.1514C12.9265 23.9657 12.8547 23.7916 12.7227 23.6593C12.5905 23.5273 12.4151 23.4541 12.2292 23.4545L11.6989 23.4541C11.5062 23.4541 11.3316 23.5325 11.205 23.6593C11.0782 23.7857 11 23.9605 11 24.153V28.2672C11 28.4577 11.0766 28.6361 11.2153 28.7696C11.3435 28.903 11.5219 28.9794 11.7122 28.9794H15.9131C16.2983 28.9798 16.6118 28.6664 16.6118 28.2813V27.7506C16.6118 27.5647 16.5394 27.39 16.407 27.2577C16.2749 27.1253 16.1004 27.0533 15.9145 27.0533L14.3373 27.0545L16.8274 24.5648C16.8287 24.5636 16.8297 24.5628 16.8307 24.5616L17.1121 24.2802L17.1544 24.2377C17.4269 23.9651 17.4358 23.5082 17.1637 23.236Z" fill="white"/>
    <path d="M28.9581 11.7346C28.9581 11.5445 28.8817 11.3661 28.7432 11.2325C28.6144 11.099 28.436 11.0222 28.2459 11.0222H24.1317C23.9392 11.0222 23.7644 11.1006 23.638 11.227C23.5112 11.3538 23.4328 11.5282 23.4328 11.7207V12.251C23.4328 12.4373 23.5054 12.6121 23.6376 12.7443C23.7694 12.8763 23.9442 12.9487 24.1301 12.9487L25.7068 12.9467L22.8142 15.8394C22.8055 15.8484 22.7984 15.8654 22.7918 15.8752C22.5604 16.1496 22.5682 16.5658 22.8261 16.8237L23.2016 17.1992C23.4737 17.4713 23.9279 17.4651 24.2004 17.1925L24.524 16.869C24.5256 16.8678 24.5264 16.8666 24.5276 16.8654L27.0336 14.3596L27.032 15.9367C27.032 16.1228 27.1034 16.2965 27.2356 16.4284C27.3678 16.5612 27.5434 16.634 27.7289 16.6336L28.2596 16.634C28.645 16.634 28.9583 16.3205 28.9583 15.9351L28.9581 11.7346Z" fill="white"/>
</svg>
