<svg width="18" height="18" viewBox="0 0 18 18" fill="none" xmlns="http://www.w3.org/2000/svg">
<path d="M14.503 0H3.46988C1.57229 0 0 1.57229 0 3.46988V7.12952V8.48494V14.503C0 16.4277 1.57229 17.9729 3.46988 17.9729H14.503C16.4277 17.9729 17.9729 16.4006 17.9729 14.503V8.51205V7.15663V3.46988C18 1.57229 16.4277 0 14.503 0ZM15.506 2.08735H15.9126V2.49398V5.1506H12.8765V2.11446L15.506 2.08735ZM6.4247 7.15663C6.99398 6.37048 7.94277 5.82831 9 5.82831C10.0572 5.82831 10.9789 6.34337 11.5753 7.15663C11.6566 7.26506 11.7108 7.34638 11.7651 7.45482C12.0361 7.91566 12.1717 8.43072 12.1717 9C12.1717 10.7349 10.762 12.1717 9 12.1717C7.26506 12.1717 5.82831 10.762 5.82831 9C5.82831 8.43072 5.99096 7.91566 6.23494 7.45482C6.28916 7.34638 6.37048 7.23795 6.4247 7.15663ZM16.238 14.503C16.238 15.4518 15.4518 16.238 14.503 16.238H3.46988C2.52108 16.238 1.73494 15.4518 1.73494 14.503V8.07831V7.15663H4.41867C4.36446 7.31928 4.28313 7.48193 4.25602 7.67169C4.14759 8.10542 4.06626 8.53916 4.06626 9C4.06626 11.7108 6.26205 13.9066 8.97289 13.9066C11.6837 13.9066 13.8795 11.7108 13.8795 9C13.8795 8.53916 13.8253 8.07831 13.6898 7.67169C13.6355 7.50904 13.5813 7.31928 13.5271 7.15663H16.2108V8.07831V14.503H16.238Z" fill="white"/>
</svg>
