<svg width="60" height="34" viewBox="0 0 60 34" fill="none" xmlns="http://www.w3.org/2000/svg">
<path fill-rule="evenodd" clip-rule="evenodd" d="M48.183 11.4565C45.3076 11.4565 42.9766 13.7523 42.9766 16.5842C42.9766 19.4162 45.3076 21.712 48.183 21.712C49.6083 21.712 50.8992 21.1474 51.8394 20.2337H60C58.4128 25.0567 53.7651 28.5489 48.2777 28.5489C42.3862 28.5489 37.4626 24.5234 36.2556 19.1473V27.9946H27.6414V6.09783H16.4691L20.0684 0H42.6926V5.92016C44.3688 5.08864 46.2669 4.61957 48.2777 4.61957C52.1164 4.61957 55.5441 6.3288 57.8007 9.00695L52.0258 13.1291C51.0738 12.1025 49.7059 11.4565 48.183 11.4565ZM36.2556 6.09783V14.0212C37.0222 10.6067 39.2878 7.73731 42.349 6.09783H36.2556ZM20.0684 7.29891H26.2214V27.9946H19.0271V20.9728H15.9335L8.89824 34H0L15.7602 7.29891H19.0271H20.0684ZM19.0271 18.0163V15.2446L17.5302 18.0163H19.0271Z" fill="#FF1E2E"/>
</svg>
