<svg width="128" height="74" viewBox="0 0 128 74" fill="none" xmlns="http://www.w3.org/2000/svg">
<path fill-rule="evenodd" clip-rule="evenodd" d="M102.79 24.9348C96.6562 24.9348 91.6835 29.9314 91.6835 36.0951C91.6835 42.2588 96.6562 47.2554 102.79 47.2554C105.831 47.2554 108.585 46.0268 110.591 44.038H128C124.614 54.5352 114.699 62.1359 102.992 62.1359C90.4239 62.1359 79.9201 53.3745 77.3453 41.6735V60.9293H58.9682V13.2717H35.1342L42.8125 0H91.0776V12.885C94.6535 11.0753 98.7027 10.0543 102.992 10.0543C111.182 10.0543 118.494 13.7745 123.308 19.6034L110.988 28.5751C108.958 26.3408 106.039 24.9348 102.79 24.9348ZM77.3453 13.2717V30.5168C78.9807 23.0852 83.814 16.84 90.3446 13.2717H77.3453ZM42.8125 15.8859H55.939V60.9293H40.5911V45.6467H33.9915L18.9829 74H0L33.6218 15.8859H40.5911H42.8125ZM40.5911 39.212V33.1793L37.3978 39.212H40.5911Z" fill="#FF1E2E"/>
</svg>
