<svg width="13" height="20" viewBox="0 0 13 20" fill="none" xmlns="http://www.w3.org/2000/svg">
<path d="M6.5 0C2.91597 0 0 2.99074 0 6.66668C0 7.7702 0.269 8.86434 0.780379 9.8348L6.14455 19.7852C6.21596 19.9178 6.35204 20 6.5 20C6.64796 20 6.78405 19.9178 6.85546 19.7852L12.2216 9.83152C12.731 8.86434 13 7.77016 13 6.66664C13 2.99074 10.084 0 6.5 0ZM6.5 10C4.70798 10 3.25002 8.50465 3.25002 6.66668C3.25002 4.82871 4.70798 3.33336 6.5 3.33336C8.29202 3.33336 9.74998 4.82871 9.74998 6.66668C9.74998 8.50465 8.29202 10 6.5 10Z" fill="white"/>
</svg>
