<svg width="50" height="64" viewBox="0 0 50 64" fill="none" xmlns="http://www.w3.org/2000/svg">
<path d="M11.0614 35.9869C10.6788 35.9869 10.3295 35.8252 10.0967 35.5179C4.29162 28.2558 4.95696 17.856 11.6602 11.3541C15.2198 7.89289 19.9437 5.98438 24.9669 5.98438C27.8944 5.98438 30.8385 6.66368 33.45 7.95759C33.7494 8.10315 33.9656 8.34576 34.0654 8.65306C34.1652 8.96037 34.1486 9.28384 33.9989 9.5588C33.7826 9.96315 33.3668 10.2219 32.9011 10.2219C32.7181 10.2219 32.5185 10.1734 32.3522 10.0925C30.0734 8.97654 27.5118 8.37811 24.9669 8.37811C20.609 8.37811 16.5005 10.044 13.3901 13.0524C7.5684 18.7132 6.98623 27.7544 12.0262 34.0622C12.442 34.5798 12.3422 35.34 11.8099 35.7443C11.6103 35.8899 11.3442 35.9869 11.0614 35.9869Z" fill="#FF1E2E"/>
<path d="M24.9499 42.5858C20.7251 42.5858 16.7497 41.2595 13.423 38.7526C13.1569 38.5585 12.9905 38.2674 12.9573 37.9601C12.924 37.6366 13.0072 37.3293 13.2068 37.0705C13.4396 36.7794 13.7889 36.6015 14.1715 36.6015C14.4543 36.6015 14.7038 36.6823 14.92 36.8602C17.7976 39.0437 21.274 40.1921 24.9333 40.1921C29.3245 40.1921 33.433 38.5423 36.5268 35.534C41.5334 30.6657 42.7643 23.258 39.5707 17.112C39.2713 16.5297 39.5042 15.8019 40.1196 15.5107C40.2859 15.4299 40.4855 15.3813 40.6685 15.3813C41.1342 15.3813 41.5501 15.6401 41.7663 16.0445C45.4423 23.1125 44.0285 31.6361 38.2733 37.2322C34.7304 40.6934 29.9899 42.5858 24.9499 42.5858Z" fill="#FF1E2E"/>
<path d="M38.1571 14.1682C37.8078 14.1682 37.4752 14.0227 37.2423 13.7639C37.0261 13.5213 36.7766 13.2787 36.5437 13.0361C36.2942 12.7934 36.0447 12.567 35.7952 12.3568C35.5457 12.1465 35.396 11.8554 35.3793 11.5319C35.3627 11.2084 35.4625 10.9011 35.6787 10.6585C35.9116 10.3997 36.2443 10.2542 36.5936 10.2542C36.893 10.2542 37.1758 10.3674 37.4086 10.5615C37.6914 10.8041 37.9908 11.079 38.2736 11.3378C38.5563 11.6128 38.8225 11.8877 39.072 12.1788C39.2882 12.4214 39.4046 12.7288 39.3714 13.0522C39.3547 13.3757 39.205 13.6668 38.9555 13.8771C38.7559 14.055 38.4732 14.1682 38.1571 14.1682Z" fill="#FF1E2E"/>
<path d="M36.0612 64C36.0279 64 35.978 64 35.9448 64C35.5123 63.9676 35.1131 63.6927 34.9301 63.3045L27.7112 47.6482L26.9461 48.1011C26.3639 48.4407 25.6986 48.6348 25.0166 48.6348C24.3347 48.6348 23.6693 48.4569 23.0872 48.1011L22.3553 47.6644L15.153 63.3045C14.9701 63.6927 14.5875 63.9676 14.1384 64C14.1051 64 14.0552 64 14.022 64C13.6228 64 13.2402 63.8059 13.0073 63.4824L9.7638 58.9537L4.12508 59.6007C4.07518 59.6007 4.02528 59.6169 3.97538 59.6169C3.59281 59.6169 3.21025 59.439 2.97738 59.1317C2.71124 58.792 2.66134 58.323 2.84431 57.9348L9.89687 42.6343L9.08184 42.4402C7.7179 42.1168 6.66999 41.0978 6.35396 39.7877L5.73852 37.3293C5.67199 37.0543 5.50566 36.7956 5.25615 36.6338L3.16035 35.1458C2.02927 34.3371 1.46374 33.0109 1.67997 31.6684L2.07917 29.1777C2.12908 28.8865 2.06254 28.5954 1.91284 28.3528L0.548902 26.1855C-0.182967 25.021 -0.182967 23.5815 0.548902 22.4332L1.91284 20.2659C2.06254 20.0232 2.12908 19.7321 2.07917 19.441L1.67997 16.9502C1.46374 15.6078 2.02927 14.2654 3.16035 13.4728L5.25615 11.9848C5.48902 11.8231 5.67199 11.5643 5.73852 11.2894L6.35396 8.83093C6.68663 7.50467 7.73453 6.48572 9.08184 6.17842L11.6101 5.57998C11.8929 5.51529 12.159 5.35355 12.3253 5.11094L13.8556 3.07304C14.5542 2.13495 15.6687 1.58504 16.8496 1.58504C17.0492 1.58504 17.2322 1.60121 17.4318 1.63356L19.9933 2.02173C20.0599 2.03791 20.1264 2.03791 20.1929 2.03791C20.4258 2.03791 20.642 1.97321 20.8416 1.85999L23.0705 0.533738C23.6527 0.194086 24.318 0 25 0C25.682 0 26.3473 0.177913 26.9295 0.533738L29.1583 1.85999C29.358 1.97321 29.5742 2.03791 29.8071 2.03791C29.8736 2.03791 29.9401 2.03791 30.0067 2.02173L32.5682 1.63356C32.7678 1.60121 32.9508 1.58504 33.1504 1.58504C34.3313 1.58504 35.4458 2.13495 36.1444 3.07304L37.6746 5.11094C37.841 5.33738 38.1071 5.51529 38.3899 5.57998L40.9182 6.17842C42.2821 6.50189 43.33 7.52085 43.646 8.83093L44.2615 11.2894C44.328 11.5643 44.4943 11.8231 44.7438 11.9848L46.8397 13.4728C47.9707 14.2815 48.5363 15.6078 48.32 16.9502L47.9208 19.441C47.8709 19.7321 47.9375 20.0232 48.0872 20.2659L49.4511 22.4332C50.183 23.5977 50.183 25.0371 49.4511 26.1855L48.0872 28.3528C47.9375 28.5954 47.8709 28.8865 47.9208 29.1777L48.32 31.6684C48.5363 33.0109 47.9707 34.3533 46.8397 35.1458L44.7438 36.6338C44.511 36.7956 44.328 37.0543 44.2615 37.3293L43.646 39.7877C43.3134 41.114 42.2655 42.1329 40.9182 42.4402L40.1364 42.6181L47.189 57.9186C47.3719 58.3068 47.322 58.7758 47.0559 59.1155C46.823 59.4228 46.4571 59.6007 46.0579 59.6007C46.008 59.6007 45.9581 59.6007 45.9082 59.5845L40.2695 58.9376L37.0259 63.4663C36.843 63.8059 36.4604 64 36.0612 64ZM36.2941 60.3932L38.7226 57.0129C38.9554 56.6894 39.3214 56.4953 39.7372 56.4953C39.7871 56.4953 39.837 56.4953 39.8869 56.5115L44.0951 56.9967L37.8244 43.3945C37.7911 43.443 37.7412 43.4754 37.7079 43.5239L36.1776 45.5618C36.0612 45.7074 35.9448 45.8529 35.7951 45.9985L39.1717 53.3414C39.3047 53.6325 39.3214 53.956 39.2049 54.2633C39.0885 54.5545 38.8556 54.7971 38.5562 54.9265C38.3899 54.9911 38.2236 55.0235 38.0572 55.0235C37.5748 55.0235 37.1257 54.7485 36.9261 54.3118L33.5662 47.0336C33.4331 47.0498 33.3001 47.0498 33.167 47.0498C32.9674 47.0498 32.7844 47.0336 32.5848 47.0013L30.0233 46.6131C29.99 46.6131 29.9734 46.6131 29.9401 46.5969L36.2941 60.3932ZM10.346 56.4953C10.7452 56.4953 11.1277 56.6894 11.3606 57.0129L13.7891 60.3932L20.143 46.5969C20.0931 46.5969 20.0599 46.5969 20.01 46.6131L17.4484 47.0013C17.2655 47.0336 17.0659 47.0498 16.8663 47.0498C16.7498 47.0498 16.6168 47.0498 16.5003 47.0336L13.1404 54.3118C12.9408 54.7485 12.5083 55.0235 12.0093 55.0235C11.843 55.0235 11.66 54.9911 11.5103 54.9265C10.8949 54.6515 10.6121 53.9398 10.8949 53.3414L14.2715 46.0308C14.1218 45.8853 13.9887 45.7397 13.8556 45.578L12.342 43.5077C12.3087 43.4754 12.2921 43.443 12.2588 43.4107L6.00466 56.9967L10.2129 56.5115C10.2628 56.4953 10.3127 56.4953 10.346 56.4953ZM20.2096 44.2032C20.8915 44.2032 21.5569 44.3811 22.1391 44.7369L24.3679 46.0632C24.5675 46.1764 24.7838 46.2411 25.0166 46.2411C25.2495 46.2411 25.4657 46.1764 25.6653 46.0632L27.8942 44.7369C28.4764 44.3973 29.1417 44.2032 29.8237 44.2032C30.0233 44.2032 30.2063 44.2194 30.4059 44.2517L32.9674 44.6399C33.0339 44.656 33.1005 44.6561 33.167 44.6561C33.5662 44.6561 33.9321 44.4781 34.1816 44.1547L35.7119 42.1168C36.2275 41.4213 36.9927 40.9361 37.841 40.7258L40.3693 40.1274C40.8184 40.0141 41.1843 39.6745 41.2841 39.2378L41.8995 36.7794C42.0991 35.9545 42.6148 35.2105 43.33 34.7091L45.4258 33.2211C45.8084 32.9462 45.9913 32.5095 45.9248 32.0566L45.5256 29.5658C45.3925 28.7248 45.5589 27.8514 46.0246 27.1236L47.3886 24.9563C47.6381 24.5681 47.6381 24.0829 47.3886 23.6947L46.0246 21.5274C45.5589 20.7996 45.3925 19.9262 45.5256 19.0852L45.9248 16.5944C45.9913 16.1415 45.8084 15.6887 45.4258 15.4299L43.33 13.9419C42.6148 13.4405 42.1158 12.6965 41.8995 11.8716L41.2841 9.38084C41.1677 8.94415 40.8184 8.58832 40.3693 8.49128L37.841 7.89285C36.9927 7.69876 36.2275 7.19737 35.7119 6.50189L34.1816 4.46399C33.9488 4.15668 33.5662 3.9626 33.167 3.9626C33.1005 3.9626 33.0339 3.9626 32.9674 3.97877L30.4059 4.36694C30.2229 4.39929 30.0233 4.41547 29.8237 4.41547C29.1417 4.41547 28.4764 4.23755 27.8942 3.88173L25.6653 2.55547C25.4657 2.44225 25.2495 2.37756 25.0166 2.37756C24.7838 2.37756 24.5675 2.44225 24.3679 2.55547L22.1391 3.8979C21.5569 4.23755 20.8915 4.43164 20.2096 4.43164C20.01 4.43164 19.827 4.41547 19.6274 4.38312L17.0659 3.99495C16.9993 3.97877 16.9328 3.97877 16.8663 3.97877C16.4671 3.97877 16.1011 4.17286 15.8516 4.48016L14.3214 6.51807C13.8057 7.21354 13.0406 7.69876 12.1923 7.90902L9.664 8.49128C9.19827 8.6045 8.84897 8.94415 8.74917 9.38084L8.13373 11.8393C7.93413 12.6641 7.4185 13.4081 6.70326 13.9095L4.60745 15.3975C4.22488 15.6725 4.04192 16.1092 4.10845 16.562L4.50765 19.0528C4.64072 19.8939 4.47438 20.7672 4.00865 21.4951L2.64471 23.6624C2.39521 24.0505 2.39521 24.5358 2.64471 24.9239L4.00865 27.0912C4.45775 27.8191 4.64072 28.6924 4.50765 29.5335L4.10845 32.0243C4.04192 32.4771 4.22488 32.93 4.60745 33.1888L6.70326 34.6768C7.4185 35.1782 7.9175 35.9222 8.13373 36.747L8.74917 39.2055C8.8656 39.6583 9.2149 39.998 9.664 40.095L12.1923 40.6935C13.0406 40.8875 13.8057 41.3889 14.3214 42.0844L15.8516 44.1223C16.0845 44.4296 16.4671 44.6237 16.8663 44.6237C16.9328 44.6237 16.9993 44.6237 17.0659 44.6075L19.6274 44.2194C19.827 44.2194 20.01 44.2032 20.2096 44.2032Z" fill="#FF1E2E"/>
<path d="M31.3871 35.518C31.0378 35.518 30.6885 35.4209 30.3725 35.2592L25.0165 32.3479L19.6606 35.2592C19.3445 35.4209 18.9952 35.518 18.6459 35.518C18.2135 35.518 17.7976 35.3886 17.4317 35.1298C16.7663 34.6608 16.4669 33.9006 16.6166 33.1242L17.8143 27.2693L13.3066 23.2258C12.7078 22.6921 12.4916 21.8834 12.7411 21.1394C12.9906 20.3792 13.6559 19.8617 14.4543 19.7646L20.5421 19.0692L23.1369 13.6347C23.4862 12.9231 24.2015 12.4702 25.0165 12.4702C25.8316 12.4702 26.5468 12.9231 26.8961 13.6347L29.4576 19.053L35.5455 19.7485C36.3605 19.8455 37.0092 20.3631 37.2587 21.1232C37.5082 21.8834 37.292 22.6759 36.6932 23.2097L32.1855 27.2531L33.3831 33.1081C33.5495 33.8844 33.2334 34.6608 32.5681 35.1136C32.2354 35.3886 31.8196 35.518 31.3871 35.518ZM25.0165 29.7763C25.2327 29.7763 25.4323 29.8248 25.6153 29.9218L30.8216 32.7522L29.6572 27.0752C29.5741 26.6709 29.7238 26.2504 30.0232 25.9592L34.3978 22.029L28.4763 21.3497C28.0604 21.3011 27.6779 21.0424 27.5115 20.6704L25.0165 15.4139L22.5215 20.6704C22.3385 21.0424 21.9726 21.3011 21.5568 21.3497L15.6353 22.029L20.0099 25.9592C20.3259 26.2342 20.459 26.6709 20.3758 27.0752L19.2115 32.7522L24.4177 29.9218C24.6007 29.841 24.8003 29.7763 25.0165 29.7763Z" fill="#FF1E2E"/>
</svg>
