<svg width="18" height="18" viewBox="0 0 18 18" fill="none" xmlns="http://www.w3.org/2000/svg">
<path fill-rule="evenodd" clip-rule="evenodd" d="M9.09562 0.628875C13.8375 0.628875 17.6805 4.419 17.6805 9.09338C17.6805 9.71775 17.613 10.3241 17.4825 10.9114C17.8132 11.5684 18 12.3086 18 13.0916C18 15.8018 15.7714 18 13.0219 18C12.1691 18 11.3693 17.7885 10.6673 17.4172C10.1565 17.5095 9.63225 17.559 9.0945 17.559C4.35375 17.559 0.509625 13.7689 0.509625 9.09338C0.509625 8.51175 0.570375 7.94138 0.684 7.39237C0.24975 6.66225 0 5.81512 0 4.9095C0 2.19712 2.22863 0 4.97925 0C5.95237 0 6.86025 0.27675 7.6275 0.752625C8.10563 0.671625 8.59612 0.628875 9.09562 0.628875ZM11.7528 14.4428C12.5144 14.1323 13.1006 13.6935 13.4977 13.1389C13.8959 12.5832 14.0984 11.9475 14.0996 11.2512C14.0996 10.6684 13.9826 10.1678 13.7508 9.75942C13.5191 9.35442 13.1939 9.01692 12.7833 8.75254C12.3783 8.49267 11.8856 8.27104 11.3129 8.09217C10.7482 7.91329 10.1103 7.74792 9.41505 7.60167C8.86493 7.47679 8.46556 7.37892 8.22705 7.31367C7.99418 7.25067 7.7613 7.16067 7.5363 7.04929C7.31805 6.94129 7.14593 6.81417 7.02443 6.66567C6.90855 6.52729 6.8523 6.36642 6.8523 6.17404C6.8523 5.85904 7.02668 5.59354 7.38443 5.36292C7.75568 5.12217 8.25743 5.00067 8.87168 5.00067C9.53543 5.00067 10.0169 5.10867 10.3061 5.32579C10.6031 5.54967 10.8629 5.86579 11.0767 6.26629C11.2612 6.57904 11.4288 6.79842 11.5897 6.93904C11.7618 7.08867 12.0116 7.16629 12.3288 7.16629C12.6776 7.16629 12.9746 7.04479 13.2108 6.80404C13.4448 6.56554 13.5629 6.28992 13.5629 5.98729C13.5629 5.67342 13.4718 5.34829 13.2941 5.02204C13.1186 4.69804 12.8373 4.38867 12.4593 4.09617C12.0847 3.80704 11.6077 3.57304 11.0418 3.39979C10.4782 3.22654 9.80431 3.13879 9.03818 3.13879C8.07856 3.13879 7.23143 3.26929 6.5193 3.52917C5.79593 3.79129 5.23568 4.17717 4.85206 4.67104C4.46505 5.16829 4.2693 5.74429 4.2693 6.38329C4.2693 7.05379 4.45605 7.62417 4.82505 8.08092C5.1873 8.52754 5.68455 8.88529 6.29993 9.14404C6.90068 9.39829 7.6578 9.61992 8.54993 9.80779C9.20468 9.94279 9.73456 10.0733 10.1249 10.1925C10.4984 10.3084 10.8067 10.476 11.0407 10.692C11.2623 10.8979 11.3714 11.1612 11.3714 11.4942C11.3714 11.9172 11.1644 12.2637 10.7358 12.5505C10.2993 12.8442 9.71655 12.9949 9.00668 12.9949C8.49143 12.9949 8.07181 12.9195 7.76018 12.7755C7.45081 12.6304 7.20893 12.4459 7.03905 12.2243C6.86468 11.9982 6.69931 11.7079 6.54743 11.3637C6.4113 11.0498 6.24143 10.8045 6.04455 10.638C5.83755 10.4659 5.5833 10.3793 5.28856 10.3793C4.92856 10.3793 4.62705 10.4884 4.39193 10.7078C4.15455 10.9272 4.03418 11.1972 4.03418 11.5054C4.03418 12.0038 4.21755 12.5179 4.58318 13.0354C4.9443 13.5507 5.41905 13.9658 5.99618 14.2729C6.80393 14.6959 7.8378 14.9097 9.0708 14.9097C10.0991 14.9097 11.0002 14.751 11.7528 14.4428Z" fill="white"/>
</svg>
