<svg width="52" height="62" viewBox="0 0 52 62" fill="none" xmlns="http://www.w3.org/2000/svg">
<g clip-path="url(#clip0)">
<path fill-rule="evenodd" clip-rule="evenodd" d="M47.7614 50.3787C47.3749 50.963 46.5793 51.1292 45.9838 50.7497C45.3885 50.3704 45.2193 49.589 45.6059 49.0046C51.5743 39.9819 50.2724 27.9027 42.5106 20.2831C33.3912 11.3312 18.5531 11.3312 9.43379 20.2831C0.314533 29.2352 0.314533 43.8012 9.43379 52.7533C17.2059 60.3828 29.5215 61.6539 38.7172 55.7755C39.312 55.3953 40.1081 55.5605 40.4954 56.1442C40.8828 56.7281 40.7146 57.5096 40.1198 57.8898C35.9189 60.5754 30.9678 62 25.9531 62C25.1047 62 24.2551 61.9592 23.4061 61.877C17.458 61.3001 11.8503 58.6936 7.61636 54.5373C4.93599 51.906 2.96576 48.8376 1.70505 45.5638L0.884992 43.0408C0.458464 41.4491 0.191017 39.8247 0.082523 38.1919L0.0415649 35.6688C0.0963896 34.04 0.309012 32.4158 0.679303 30.8198L1.40551 28.2969C1.9838 26.6228 2.74351 24.9965 3.6858 23.448C3.6858 23.448 5.40219 20.9273 5.43441 20.9297C6.10027 20.0855 6.82763 19.2733 7.61636 18.4989C11.2208 14.9606 15.6305 12.6835 20.2716 11.6654V8.45108C18.3703 7.98664 16.957 6.29699 16.957 4.28899C16.957 1.9239 18.9171 -0.000244141 21.3264 -0.000244141H30.5791C32.9884 -0.000244141 34.9485 1.9239 34.9485 4.28899C34.9485 6.29711 33.5351 7.98677 31.6337 8.45108V11.6564C36.289 12.6702 40.7134 14.9505 44.3281 18.4987C48.5578 22.6511 51.2125 28.1503 51.8033 33.9833C52.3857 39.7352 50.9502 45.5578 47.7614 50.3787ZM22.8418 11.2316C24.9075 10.9874 26.9975 10.9859 29.0635 11.2271V8.57823H22.8418V11.2316ZM32.3783 4.28912C32.3783 3.31518 31.5712 2.52294 30.5791 2.52294H21.3264C20.3343 2.52294 19.5272 3.31518 19.5272 4.28912C19.5272 5.26281 20.3343 6.05517 21.3264 6.05517H21.5567H30.3486H30.5791C31.5712 6.05517 32.3783 5.26294 32.3783 4.28912ZM6.03659 36.5179C6.03659 25.727 14.9798 16.948 25.9722 16.948C36.9648 16.948 45.9079 25.727 45.9079 36.5179C45.9079 47.3089 36.9648 56.0879 25.9722 56.0879C14.9798 56.0879 6.03659 47.3089 6.03659 36.5179ZM43.3377 36.5179C43.3377 27.1183 35.5477 19.471 25.9722 19.471C16.3969 19.471 8.6068 27.1183 8.6068 36.5179C8.6068 45.9176 16.3969 53.5649 25.9722 53.5649C35.5477 53.5649 43.3377 45.9176 43.3377 36.5179ZM24.6715 50.0061V48.8373C24.6715 48.1407 25.2469 47.5759 25.9566 47.5759C26.6662 47.5759 27.2417 48.1407 27.2417 48.8373V50.0061C27.2417 50.7028 26.6662 51.2676 25.9566 51.2676C25.2469 51.2676 24.6715 50.7028 24.6715 50.0061ZM21.9789 36.5178C21.9789 35.8965 22.1274 35.3088 22.3908 34.7863L19.5421 31.9899C19.0403 31.4971 19.0403 30.6983 19.5421 30.2058C20.0442 29.7132 20.8577 29.7132 21.3596 30.2058L24.2083 33.0022C24.7407 32.7438 25.3392 32.5979 25.9722 32.5979C26.6052 32.5979 27.2039 32.7438 27.7361 33.0022L34.1013 26.754C34.6033 26.2614 35.4169 26.2614 35.9186 26.754C36.4205 27.2465 36.4205 28.0454 35.9186 28.5381L35.7319 28.7213L29.5537 34.7863C29.8169 35.3088 29.9656 35.8965 29.9656 36.5178C29.9656 38.6793 28.1743 40.4379 25.9722 40.4379C23.7703 40.4379 21.9789 38.6793 21.9789 36.5178ZM27.3954 36.5179C27.3954 35.7476 26.757 35.1209 25.9722 35.1209C25.1876 35.1209 24.5491 35.7476 24.5491 36.5179C24.5491 37.2883 25.1876 37.915 25.9722 37.915C26.757 37.915 27.3954 37.2883 27.3954 36.5179ZM38.5218 35.2718H39.7124C40.4221 35.2718 40.9975 35.8366 40.9975 36.5333C40.9975 37.2301 40.4221 37.7949 39.7124 37.7949H38.5218C37.8122 37.7949 37.2367 37.2301 37.2367 36.5333C37.2367 35.8366 37.8122 35.2718 38.5218 35.2718ZM25.9879 25.46C25.2783 25.46 24.7028 24.8952 24.7028 24.1984V23.0298C24.7028 22.333 25.2783 21.7683 25.9879 21.7683C26.6975 21.7683 27.273 22.333 27.273 23.0298V24.1984C27.273 24.8952 26.6975 25.46 25.9879 25.46ZM13.4226 37.7641H12.2322C11.5225 37.7641 10.9471 37.1993 10.9471 36.5026C10.9471 35.8058 11.5225 35.241 12.2322 35.241H13.4226C14.1323 35.241 14.7077 35.8058 14.7077 36.5026C14.7077 37.1993 14.1323 37.7641 13.4226 37.7641ZM42.5114 52.7528C42.7504 52.5182 43.0806 52.3832 43.42 52.3832C43.7578 52.3832 44.0881 52.5182 44.3285 52.7528C44.5677 52.9874 44.7051 53.3129 44.7051 53.6447C44.7051 53.9765 44.5676 54.3019 44.3285 54.5365C44.0881 54.7725 43.7579 54.9062 43.42 54.9062C43.0808 54.9062 42.7504 54.7725 42.5114 54.5365C42.2712 54.3019 42.1349 53.9765 42.1349 53.6447C42.1349 53.3129 42.2712 52.9874 42.5114 52.7528Z" fill="#FF1E2E"/>
</g>
<defs>
<clipPath id="clip0">
<rect width="52" height="62" fill="white"/>
</clipPath>
</defs>
</svg>
