<svg width="25" height="14" viewBox="0 0 25 14" fill="none" xmlns="http://www.w3.org/2000/svg">
<path d="M24.8019 1.08187C24.506 0.819576 23.3553 0.852363 22.2046 0.852363C21.0539 0.852363 19.8704 0.852363 19.6074 0.98351C19.3444 1.08187 18.7854 2.42613 18.0622 3.80318C17.2402 5.37695 16.2211 6.85236 15.5964 6.85236C14.7745 6.85236 14.9717 4.2622 15.0046 2.39335C15.0375 1.14744 14.8402 0.754002 14.643 0.622854C14.2156 0.327772 12.9991 0.0326904 12.9991 0.0326904C12.9991 0.0326904 9.41559 -0.262392 8.92243 1.31138C9.61285 1.40974 10.7964 1.18023 10.3361 5.9999C10.3033 6.22941 9.77723 8.22941 8.10052 5.54089C7.67312 4.88515 6.06216 0.852363 5.50326 0.852363C3.62928 0.786789 1.78819 0.721215 1.13065 1.08187C0.538873 1.40974 1.95257 4.19662 4.31969 7.90154C6.25942 10.9179 8.29778 13.2786 11.8485 13.8688C12.506 13.9343 14.2485 13.9999 14.8074 13.7376C15.169 13.5409 14.7416 10.9179 15.9909 10.6884C16.5498 10.5901 18.7197 13.4097 19.5416 13.7376C20.0348 13.9343 21.1197 13.9999 22.2375 13.9671C23.4539 13.9343 24.8019 14.0655 24.9334 13.2458C25.2293 11.4425 21.2841 9.08187 21.1526 7.96712C21.0539 7.18023 22.5991 5.67203 23.3882 4.55728C24.3745 3.24581 25.4265 1.57367 24.8019 1.08187Z" fill="white"/>
</svg>
