<svg width="21" height="17" viewBox="0 0 21 17" fill="none" xmlns="http://www.w3.org/2000/svg">
<path d="M20.7786 3.44969C20.7786 3.44969 20.5889 1.87269 19.9563 1.18275C19.1657 0.262834 18.2485 0.262834 17.869 0.229979C14.8961 0 10.5 0 10.5 0C10.5 0 6.10392 0 3.16265 0.229979C2.75151 0.295688 1.83434 0.295688 1.04367 1.18275C0.411145 1.87269 0.221386 3.44969 0.221386 3.44969C0.221386 3.44969 0 5.28953 0 7.12936V7.35934V8.87064C0 10.7105 0.221386 12.5503 0.221386 12.5503C0.221386 12.5503 0.411145 14.1273 1.04367 14.8172C1.83434 15.7372 2.87801 15.7043 3.35241 15.8029C5.02861 15.9671 10.5 16.0329 10.5 16.0329C10.5 16.0329 14.8961 16.0329 17.8374 15.8029C18.2485 15.7372 19.134 15.7372 19.9247 14.8501C20.5572 14.1602 20.747 12.5832 20.747 12.5832C20.747 12.5832 20.9684 10.7433 20.9684 8.90349V7.49076V7.16222C21 5.28953 20.7786 3.44969 20.7786 3.44969ZM14.0105 7.75359L8.3494 10.9405V6.04517V4.56673L10.9111 6.01232L14.0105 7.75359Z" fill="white"/>
</svg>
